<?xml version="1.0" encoding="UTF-8" standalone="no"?>
<svg
   width="16"
   height="16"
   version="1.1"
   id="svg3"
   sodipodi:docname="composite_sprite_2d.svg"
   inkscape:version="1.4 (86a8ad7, 2024-10-11)"
   xmlns:inkscape="http://www.inkscape.org/namespaces/inkscape"
   xmlns:sodipodi="http://sodipodi.sourceforge.net/DTD/sodipodi-0.dtd"
   xmlns="http://www.w3.org/2000/svg"
   xmlns:svg="http://www.w3.org/2000/svg">
  <defs
     id="defs3" />
  <sodipodi:namedview
     id="namedview3"
     pagecolor="#ffffff"
     bordercolor="#000000"
     borderopacity="0.25"
     inkscape:showpageshadow="2"
     inkscape:pageopacity="0.0"
     inkscape:pagecheckerboard="0"
     inkscape:deskcolor="#d1d1d1"
     inkscape:zoom="22.627417"
     inkscape:cx="-12.904699"
     inkscape:cy="17.699767"
     inkscape:window-width="3440"
     inkscape:window-height="1369"
     inkscape:window-x="1912"
     inkscape:window-y="-8"
     inkscape:window-maximized="1"
     inkscape:current-layer="g3" />
  <g
     fill="#8da5f3"
     id="g3">
    <path
       fill-opacity="0.4"
       d="M 7,0 A 2,2 0 0 0 5,2 h 7 a 2,2 0 0 1 2,2 v 6 A 2,2 0 0 0 16,8 V 2 A 2,2 0 0 0 14,0 Z"
       id="path1"
       style="display:none" />
    <path
       fill-opacity="0.6"
       d="M 5,2 A 2,2 0 0 0 3,4 h 7 a 2,2 0 0 1 2,2 v 7 a 2,2 0 0 0 2,-2 V 4 A 2,2 0 0 0 12,2 Z"
       id="path2"
       style="display:none" />
    <path
       d="m 2.5346547,4.1745045 a 2,2 0 0 0 -2.00000004,2 v 6.9999995 a 2,2 0 0 0 2.00000004,2 h 7 a 2,2 0 0 0 2.0000003,-2 V 6.1745045 a 2,2 0 0 0 -2.0000003,-2 z m -1,5 a 1,1 0 0 1 2,0 v 0.9999995 a 1,1 0 0 1 -2,0 z m 7,0 a 1.0000001,1.0000001 0 0 1 2.0000003,0 v 0.9999995 a 1.0000001,1.0000001 0 0 1 -2.0000003,0 z m 0,2.9999995 a 2.5,2 0 0 1 -5,0 z"
       id="path3"
       style="display:none" />
    <path
       d="M 3.8317373,2.941995 C 2.4997345,2.9755309 1.4191682,3.9817089 1.4191672,5.2642619 v 8.1279391 c -7e-7,1.282554 1.080144,2.32227 2.4125701,2.32227 H 12.27573 c 1.332426,0 2.41257,-1.039717 2.412569,-2.32227 l 0.0221,-7.9376633 c 0.04419,-0.806774 -0.813338,-2.5311609 -2.362408,-2.5200667 -0.266962,0.00191 0.09282,-0.00727 -0.662906,0.00948 -0.516963,0.011457 -0.493056,0.929106 -0.514494,1.7116955 -0.02284,0.8336283 -0.227736,1.0766056 -1.071208,1.1225674 C 9.403097,5.8161554 6.5157281,5.7546617 6.2436768,5.7438911 5.4852004,5.7138628 5.1897614,5.4231572 5.1629856,4.7371233 5.1273282,3.8235364 5.2583965,2.9278561 4.3933202,2.927856 Z m -1.2062852,5.80567 c 2.312e-4,-1.5479558 2.4128009,-1.5479558 2.4125697,0 v 1.1611352 c -2.312e-4,1.5479558 -2.4128009,1.5479558 -2.4125697,0 z m 8.4439949,0 c 0.0013,-1.5469181 2.413876,-1.5469181 2.412569,0 v 1.1611352 c -0.0012,1.5469188 -2.413877,1.5469188 -2.412569,0 z m 0,3.483403 c -8.18e-4,3.095728 -6.0322426,3.095728 -6.0314252,0 z"
       id="path8"
       style="display:inline;stroke-width:1.18349"
       sodipodi:nodetypes="sccssccsssssscsccccccccccccc" />
    <path
       d="M 6.4942551,0.36319154 A 0.95794076,0.92208565 0 0 0 5.5363141,1.2852765 V 4.5125759 A 0.95794076,0.92208565 0 0 0 6.4942551,5.434662 H 9.847048 a 0.95794076,0.92208565 0 0 0 0.95794,-0.9220861 V 1.2852765 A 0.95794076,0.92208565 0 0 0 9.847048,0.36319154 Z M 6.0152845,2.6684052 a 0.47897042,0.46104283 0 0 1 0.9579408,0 v 0.461043 a 0.47897042,0.46104283 0 0 1 -0.9579408,0 z m 3.3527931,0 a 0.4789707,0.46104312 0 0 1 0.9579414,0 v 0.461043 a 0.4789707,0.46104312 0 0 1 -0.9579414,0 z m 0,1.3831284 a 1.1974262,0.92208575 0 0 1 -2.3948523,0 z"
       id="path9"
       style="display:inline;stroke-width:0.469921" />
  </g>
</svg>
